<?xml version="1.0" standalone="no"?>
<svg xmlns="http://www.w3.org/2000/svg" viewBox="0 0 107 71" width="107" height="71"><g fill="#14213d" color="#14213d" transform="translate(35.948 0) scale(0.7954546) "><svg width="44.0" height="44.0" x="0.0" y="0.0" viewBox="0 0 44 44"><path fill="currentColor" fill-rule="evenodd" d="M38.728 38.728c-4.084 4.085-10.73 4.085-14.814 0l-.444-.397c-.097-.097-.916-.91-1.519-2.168a8.669 8.669 0 0 1-1.513 2.212l-.353.353c-4.084 4.085-10.73 4.085-14.814 0-4.084-4.084-4.084-10.73 0-14.814l11.891-11.89.857.856-11.89 11.891c-3.613 3.612-3.613 9.489 0 13.1 3.611 3.614 9.488 3.614 13.1 0l.371-.372c.938-.973 1.646-2.475 1.698-4.023 0-.045.004-.09.005-.135.01-1.21-.385-2.435-1.398-3.45l-1.888-1.886-.18-.194-3.395-3.393.857-.857 4.739 4.739.397.405c.703.704 1.202 1.403 1.545 2.087.345-.66.834-1.335 1.517-2.018l.065-.073 11.892-11.89a5.851 5.851 0 0 0 0-8.265 5.85 5.85 0 0 0-8.263 0l-.353.354-.857-.857.353-.353c2.75-2.75 7.226-2.75 9.976 0 2.751 2.75 2.751 7.226 0 9.976L24.418 29.558l-.375.377c-2.38 2.38-1.446 5.788.295 7.527l.433.41c3.612 3.613 9.488 3.613 13.1 0 3.613-3.612 3.613-9.489 0-13.1l-.353-.354.857-.857.353.354c4.084 4.084 4.084 10.73 0 14.813zM15.6 10.461l-5.14 5.14-.352-.353a3.639 3.639 0 0 1 0-5.14 3.638 3.638 0 0 1 5.14 0l.352.353zm1.21-1.914a5.849 5.849 0 0 0-8.263 0 5.85 5.85 0 0 0 0 8.263l.352.353-.856.856-.353-.352c-2.75-2.751-2.75-7.227 0-9.978 2.75-2.75 7.226-2.75 9.976 0l11.892 11.892-.857.856L16.81 8.547zM22 16.86L27.138 22l-5.14 5.139L16.86 22 22 16.86zM10.46 28.4l5.14 5.138-.353.353a3.638 3.638 0 0 1-5.139 0 3.639 3.639 0 0 1 0-5.14l.353-.351zm-.78-2.344l-1.134 1.133a5.85 5.85 0 0 0 0 8.264 5.85 5.85 0 0 0 8.263 0l.353-.353c1.741-1.74-.354-3.473-1.362-4.482l-.657-.661-3.12-3.121.856-.856 4.15 4.15.328.329c3.052 3.05.899 5.26.662 5.497l-.353.353c-2.75 2.752-7.226 2.75-9.977 0-2.75-2.75-2.75-7.226 0-9.977l11.892-11.89.856.857-5.92 5.92-4.837 4.837zM28.399 10.46l.353-.353a3.64 3.64 0 0 1 5.14 0 3.64 3.64 0 0 1 0 5.14l-.353.352-5.14-5.14zM5.271 5.27c4.084-4.084 10.73-4.084 14.814 0l11.89 11.89-.856.858L19.23 6.128c-3.613-3.612-9.489-3.612-13.1 0-3.613 3.612-3.613 9.489 0 13.1l.352.353-.857.857-.353-.352C1.187 16 1.187 9.356 5.271 5.27zm28.62 28.62a3.64 3.64 0 0 1-5.14 0l-.352-.352 5.14-5.14.352.352a3.64 3.64 0 0 1 0 5.14zm-9.977-28.62c4.085-4.084 10.73-4.084 14.814 0s4.084 10.73 0 14.814L26.837 31.976c-.91.911-1.132 1.992-.053 3.083l.406.394a5.85 5.85 0 0 0 8.263 0 5.85 5.85 0 0 0 0-8.263l-.352-.353.856-.856.353.353a7.061 7.061 0 0 1 0 9.976c-2.75 2.75-7.227 2.75-9.977 0 0 0-.173-.146-.407-.382-.215-.218-2.358-2.395.055-4.808l11.89-11.891c3.613-3.612 3.613-9.489 0-13.101-3.611-3.612-9.488-3.612-13.1 0l-.353.353-.856-.856.352-.354zM39.938 22l.353-.353c4.945-4.946 4.945-12.992 0-17.938-4.946-4.945-12.992-4.945-17.938 0L22 4.062l-.353-.353c-4.945-4.945-12.992-4.945-17.938 0-4.945 4.946-4.945 12.992 0 17.938l.353.353-.352.353c-4.946 4.945-4.946 12.991 0 17.938 4.945 4.945 12.992 4.945 17.937 0l.353-.353.353.353c4.946 4.945 12.992 4.945 17.938 0 4.945-4.947 4.945-12.993 0-17.938L39.938 22z"></path></svg></g><line x1="36.998000000000005" y1="41" x2="69.898" y2="41" stroke="#14213d" stroke-linecap="round"></line><path fill="#14213d" fill-rule="nonzero" d="M6.34 6.38L6.34 6.38Q6.24 6.05 6.18 5.60Q6.12 5.16 6.12 4.30L6.12 4.30Q6.12 3.74 6.14 3.18Q6.17 2.62 6.36 2.21L6.36 2.21Q7.54 2.42 8.87 2.60Q10.20 2.78 11.59 2.93Q12.98 3.07 14.38 3.16Q15.77 3.24 17.06 3.24L17.06 3.24Q18.84 3.24 19.92 3.10L19.92 3.10Q20.30 3.62 20.40 4.34Q20.50 5.06 20.50 5.69L20.50 5.69Q17.74 6.82 15.26 8.56Q12.79 10.30 10.78 12.19Q8.76 14.09 7.30 15.94Q5.83 17.78 5.11 19.15L5.11 19.15Q5.54 19.08 6 19.02Q6.46 18.96 6.98 18.91Q7.51 18.86 8.16 18.82Q8.81 18.77 9.65 18.72L9.65 18.72Q10.82 18.65 11.71 18.47Q12.60 18.29 13.22 18.08Q13.85 17.88 14.22 17.70Q14.59 17.52 14.76 17.40L14.76 17.40Q14.86 17.62 14.99 18.05Q15.12 18.48 15.23 19.00Q15.34 19.51 15.41 20.05Q15.48 20.59 15.48 21.05L15.48 21.05Q15.48 21.29 15.47 21.37Q15.46 21.46 15.43 21.55L15.43 21.55Q14.35 21.48 13.26 21.38Q12.17 21.29 11.09 21.29L11.09 21.29Q9.65 21.29 8.10 21.44Q6.55 21.60 5.12 21.92Q3.70 22.25 2.51 22.75Q1.32 23.26 0.60 23.95L0.60 23.95Q0.41 23.33 0.20 22.88Q0 22.44 0 21.82L0 21.82Q0 21.19 0.25 20.82Q0.50 20.45 0.94 20.21L0.94 20.21Q2.38 18.14 4.21 16.12Q6.05 14.09 8.14 12.19Q10.22 10.30 12.46 8.58Q14.69 6.86 16.92 5.45L16.92 5.45Q15.48 5.38 13.87 5.38L13.87 5.38Q12.74 5.38 11.64 5.42Q10.54 5.47 9.55 5.58Q8.57 5.69 7.74 5.89Q6.91 6.10 6.34 6.38ZM26.86 10.22L26.86 10.22Q27.10 10.22 27.42 10.31Q27.74 10.39 28.01 10.52Q28.27 10.66 28.45 10.80Q28.63 10.94 28.63 11.06L28.63 11.06Q28.15 12.07 27.74 13.09Q27.34 14.11 27.05 15.05Q26.76 15.98 26.60 16.80Q26.45 17.62 26.45 18.22L26.45 18.22Q26.45 18.89 26.59 19.33Q26.74 19.78 27.07 19.97L27.07 19.97Q26.78 20.16 26.33 20.28Q25.87 20.40 25.51 20.40L25.51 20.40Q24.22 20.40 24.22 18.62L24.22 18.62Q24.22 17.26 25.13 14.88L25.13 14.88Q24.65 15.98 24.02 16.96Q23.40 17.93 22.75 18.67Q22.10 19.42 21.44 19.88Q20.78 20.35 20.23 20.45L20.23 20.45Q19.34 20.40 18.79 19.60Q18.24 18.79 18.24 17.54L18.24 17.54Q18.24 16.20 18.82 14.71Q19.39 13.22 20.29 11.95Q21.19 10.68 22.25 9.83Q23.30 8.98 24.29 8.93L24.29 8.93Q24.53 9.00 24.83 9.22Q25.13 9.43 25.40 9.72Q25.68 10.01 25.87 10.31Q26.06 10.61 26.09 10.82L26.09 10.82Q25.13 10.97 24.11 11.76Q23.09 12.55 22.26 13.67Q21.43 14.78 20.90 16.06Q20.38 17.33 20.38 18.43L20.38 18.43Q20.38 18.89 20.71 19.01L20.71 19.01Q21.41 18.86 22.32 17.82Q23.23 16.78 24.53 14.59L24.53 14.59Q24.77 14.16 25.07 13.63Q25.37 13.10 25.68 12.53Q25.99 11.95 26.29 11.36Q26.59 10.78 26.86 10.22ZM29.28 19.44L29.28 19.44Q29.40 18.74 29.70 17.60Q30 16.46 30.41 15.18Q30.82 13.90 31.27 12.60Q31.73 11.30 32.16 10.27L32.16 10.27Q32.47 9.53 32.71 9.11Q32.95 8.69 33.24 8.40L33.24 8.40Q33.58 8.45 33.94 8.57Q34.30 8.69 34.63 8.86Q34.97 9.02 35.23 9.20Q35.50 9.38 35.64 9.55L35.64 9.55Q34.99 10.32 34.50 11.30Q34.01 12.29 33.50 13.82L33.50 13.82Q34.80 12.67 35.80 11.62Q36.79 10.56 37.66 9.26L37.66 9.26Q37.80 9.14 38.16 9.14L38.16 9.14Q38.50 9.14 38.81 9.25Q39.12 9.36 39.24 9.55L39.24 9.55Q38.81 10.70 38.81 11.83L38.81 11.83Q38.81 12.89 39.12 13.42L39.12 13.42Q39.10 13.56 38.80 13.97Q38.50 14.38 38.14 14.74L38.14 14.74Q37.49 14.40 36.98 13.81Q36.48 13.22 36.24 12.53L36.24 12.53Q35.11 13.32 34.32 14.08Q33.53 14.83 32.96 15.76Q32.40 16.68 32.00 17.88Q31.61 19.08 31.25 20.74L31.25 20.74Q31.03 20.71 30.73 20.58Q30.43 20.45 30.13 20.26Q29.83 20.06 29.59 19.85Q29.35 19.63 29.28 19.44ZM47.81 10.22L47.81 10.22Q48.05 10.22 48.37 10.31Q48.70 10.39 48.96 10.52Q49.22 10.66 49.40 10.80Q49.58 10.94 49.58 11.06L49.58 11.06Q49.10 12.07 48.70 13.09Q48.29 14.11 48 15.05Q47.71 15.98 47.56 16.80Q47.40 17.62 47.40 18.22L47.40 18.22Q47.40 18.89 47.54 19.33Q47.69 19.78 48.02 19.97L48.02 19.97Q47.74 20.16 47.28 20.28Q46.82 20.40 46.46 20.40L46.46 20.40Q45.17 20.40 45.17 18.62L45.17 18.62Q45.17 17.26 46.08 14.88L46.08 14.88Q45.60 15.98 44.98 16.96Q44.35 17.93 43.70 18.67Q43.06 19.42 42.40 19.88Q41.74 20.35 41.18 20.45L41.18 20.45Q40.30 20.40 39.74 19.60Q39.19 18.79 39.19 17.54L39.19 17.54Q39.19 16.20 39.77 14.71Q40.34 13.22 41.24 11.95Q42.14 10.68 43.20 9.83Q44.26 8.98 45.24 8.93L45.24 8.93Q45.48 9.00 45.78 9.22Q46.08 9.43 46.36 9.72Q46.63 10.01 46.82 10.31Q47.02 10.61 47.04 10.82L47.04 10.82Q46.08 10.97 45.06 11.76Q44.04 12.55 43.21 13.67Q42.38 14.78 41.86 16.06Q41.33 17.33 41.33 18.43L41.33 18.43Q41.33 18.89 41.66 19.01L41.66 19.01Q42.36 18.86 43.27 17.82Q44.18 16.78 45.48 14.59L45.48 14.59Q45.72 14.16 46.02 13.63Q46.32 13.10 46.63 12.53Q46.94 11.95 47.24 11.36Q47.54 10.78 47.81 10.22ZM50.78 19.51L50.78 19.51Q50.78 18.67 50.95 17.53Q51.12 16.39 51.44 15.10Q51.77 13.80 52.21 12.38Q52.66 10.97 53.21 9.55L53.21 9.55Q53.69 8.28 54.32 6.98Q54.96 5.69 55.70 4.44Q56.45 3.19 57.25 2.06Q58.06 0.94 58.87 0L58.87 0Q59.26 0 59.70 0.10Q60.14 0.19 60.56 0.35Q60.98 0.50 61.33 0.72Q61.68 0.94 61.90 1.15L61.90 1.15Q60.10 3 58.66 4.88Q57.22 6.77 56.38 8.42L56.38 8.42Q55.92 9.34 55.55 10.13Q55.18 10.92 54.86 11.70Q54.55 12.48 54.30 13.26Q54.05 14.04 53.83 14.90L53.83 14.90Q58.44 9.02 60.67 9.02L60.67 9.02Q61.30 9.02 62.02 9.43Q62.74 9.84 63.29 10.54L63.29 10.54Q62.54 11.35 61.75 12.50Q60.96 13.66 60.30 14.82Q59.64 15.98 59.22 16.98Q58.80 17.98 58.80 18.46L58.80 18.46Q58.80 18.70 58.87 18.78Q58.94 18.86 59.18 18.86L59.18 18.86Q59.54 18.86 59.76 18.77Q59.98 18.67 60.02 18.67L60.02 18.67Q60.14 18.86 60.17 18.94Q60.19 19.01 60.19 19.06L60.19 19.06Q60.19 19.15 59.90 19.33Q59.62 19.51 59.22 19.69Q58.82 19.87 58.44 20.02Q58.06 20.16 57.86 20.16L57.86 20.16Q57.62 20.16 57.38 20.03Q57.14 19.90 56.96 19.68Q56.78 19.46 56.68 19.20Q56.57 18.94 56.57 18.65L56.57 18.65Q56.57 18.29 56.77 17.58Q56.98 16.87 57.34 15.92Q57.70 14.98 58.20 13.85Q58.70 12.72 59.28 11.54L59.28 11.54Q59.28 11.45 59.18 11.45L59.18 11.45Q59.11 11.45 58.81 11.64Q58.51 11.83 58.25 12.02L58.25 12.02Q57.38 12.67 56.51 13.62Q55.63 14.57 54.80 15.70Q53.98 16.82 53.24 18.08Q52.51 19.34 51.98 20.62L51.98 20.62Q51.91 20.78 51.77 20.93Q51.62 21.07 51.53 21.07L51.53 21.07Q51.46 21.07 51.32 20.90Q51.19 20.74 51.08 20.48Q50.98 20.23 50.88 19.97Q50.78 19.70 50.78 19.51ZM71.81 9.98L71.81 9.98Q71.71 11.47 71.28 12.54Q70.85 13.61 70.04 14.41Q69.24 15.22 68.09 15.86Q66.94 16.51 65.40 17.11L65.40 17.11Q65.40 17.26 65.39 17.41Q65.38 17.57 65.38 17.74L65.38 17.74Q65.38 18.05 65.42 18.38Q65.47 18.72 65.59 19.01Q65.71 19.30 65.93 19.48Q66.14 19.66 66.48 19.66L66.48 19.66Q67.13 19.66 67.75 19.37Q68.38 19.08 68.94 18.66Q69.50 18.24 70.00 17.75Q70.49 17.26 70.87 16.85L70.87 16.85Q71.11 17.06 71.28 17.26L71.28 17.26Q70.20 18.70 68.92 19.64Q67.63 20.59 66.48 20.86L66.48 20.86Q64.82 20.66 63.90 19.64Q62.98 18.62 62.98 17.18L62.98 17.18Q62.98 16.20 63.25 15.18Q63.53 14.16 64.02 13.21Q64.51 12.26 65.17 11.42Q65.83 10.58 66.59 9.96Q67.34 9.34 68.15 8.98Q68.95 8.62 69.74 8.62L69.74 8.62Q70.85 8.76 71.81 9.98ZM70.15 10.78L70.15 10.78Q69.50 10.87 68.81 11.30Q68.11 11.74 67.50 12.46Q66.89 13.18 66.38 14.14Q65.88 15.10 65.59 16.20L65.59 16.20Q67.51 15.24 68.78 13.84Q70.06 12.43 70.15 10.78ZM86.78 12.55L86.78 12.55Q86.40 12.58 85.85 13.04Q85.30 13.51 84.66 14.24Q84.02 14.98 83.34 15.86Q82.66 16.75 82.02 17.63Q81.38 18.50 80.83 19.27Q80.28 20.04 79.90 20.50L79.90 20.50Q79.37 20.28 78.98 19.86Q78.60 19.44 78.43 18.82L78.43 18.82Q78.55 18.07 78.77 17.27Q78.98 16.46 79.33 15.60Q79.68 14.74 80.20 13.79Q80.71 12.84 81.46 11.78L81.46 11.78Q81.10 11.81 80.47 12.30Q79.85 12.79 79.13 13.57Q78.41 14.35 77.64 15.32Q76.87 16.30 76.20 17.23L76.20 17.23Q75.31 18.48 74.72 19.42Q74.14 20.35 73.87 20.52L73.87 20.52Q73.25 20.06 73.01 19.54Q72.77 19.01 72.65 18.36L72.65 18.36Q72.67 17.78 72.83 16.92Q72.98 16.06 73.27 15.14L73.27 15.14Q73.82 13.39 74.70 11.66Q75.58 9.94 76.39 8.50L76.39 8.50Q77.06 8.64 77.60 8.95Q78.14 9.26 78.74 9.86L78.74 9.86Q78.50 10.61 78 11.44Q77.50 12.26 76.94 13.18Q76.39 14.09 75.94 15.05Q75.48 16.01 75.34 16.99L75.34 16.99Q76.01 16.03 76.93 14.78Q77.86 13.54 78.83 12.43Q79.80 11.33 80.76 10.56Q81.72 9.79 82.49 9.79L82.49 9.79Q82.78 9.79 83.11 9.89Q83.45 9.98 83.74 10.13Q84.02 10.27 84.22 10.40Q84.41 10.54 84.43 10.61L84.43 10.61Q84.31 11.09 83.87 11.92Q83.42 12.74 82.92 13.66Q82.42 14.57 81.98 15.42Q81.55 16.27 81.48 16.78L81.48 16.78Q82.66 15.17 83.69 13.86Q84.72 12.55 85.63 11.62Q86.54 10.68 87.32 10.18Q88.10 9.67 88.80 9.67L88.80 9.67Q89.28 9.67 89.70 9.92Q90.12 10.18 90.29 10.66L90.29 10.66Q90.07 11.38 89.58 12.38Q89.09 13.39 88.58 14.51Q88.08 15.62 87.68 16.70Q87.29 17.78 87.29 18.65L87.29 18.65Q87.29 19.15 87.43 19.31Q87.58 19.46 87.84 19.46L87.84 19.46Q88.13 19.46 88.38 19.36Q88.63 19.25 88.75 19.25L88.75 19.25Q88.90 19.34 88.92 19.49Q88.94 19.63 88.94 19.75L88.94 19.75Q88.46 20.14 87.96 20.39Q87.46 20.64 86.83 20.64L86.83 20.64Q86.26 20.64 85.88 20.45Q85.51 20.26 85.27 19.92Q85.03 19.58 84.94 19.15Q84.84 18.72 84.84 18.22L84.84 18.22Q84.84 17.40 85.06 16.60Q85.27 15.79 85.57 15.06Q85.87 14.33 86.21 13.69Q86.54 13.06 86.78 12.55ZM91.25 18.38L91.25 18.38Q91.25 17.33 91.75 15.42Q92.26 13.51 93.17 10.97L93.17 10.97Q94.66 6.91 95.96 4.21Q97.27 1.51 98.52 0L98.52 0Q98.81 0.05 99.23 0.24Q99.65 0.43 100.06 0.66Q100.46 0.89 100.79 1.13Q101.11 1.37 101.21 1.51L101.21 1.51Q99.34 3.72 97.92 6.26Q96.50 8.81 95.33 12.10L95.33 12.10Q94.32 14.93 93.79 17.20Q93.26 19.46 93.26 20.98L93.26 20.98Q93.26 21.38 93.26 21.48Q93.26 21.58 93.29 21.67L93.29 21.67Q92.95 21.62 92.71 21.50Q92.47 21.38 92.40 21.22L92.40 21.22Q92.35 21.10 92.14 20.87Q91.92 20.64 91.75 20.52L91.75 20.52Q91.54 20.38 91.39 19.76Q91.25 19.15 91.25 18.38ZM105.12 10.22L105.12 10.22Q105.36 10.22 105.68 10.31Q106.01 10.39 106.27 10.52Q106.54 10.66 106.72 10.80Q106.90 10.94 106.90 11.06L106.90 11.06Q106.42 12.07 106.01 13.09Q105.60 14.11 105.31 15.05Q105.02 15.98 104.87 16.80Q104.71 17.62 104.71 18.22L104.71 18.22Q104.71 18.89 104.86 19.33Q105 19.78 105.34 19.97L105.34 19.97Q105.05 20.16 104.59 20.28Q104.14 20.40 103.78 20.40L103.78 20.40Q102.48 20.40 102.48 18.62L102.48 18.62Q102.48 17.26 103.39 14.88L103.39 14.88Q102.91 15.98 102.29 16.96Q101.66 17.93 101.02 18.67Q100.37 19.42 99.71 19.88Q99.05 20.35 98.50 20.45L98.50 20.45Q97.61 20.40 97.06 19.60Q96.50 18.79 96.50 17.54L96.50 17.54Q96.50 16.20 97.08 14.71Q97.66 13.22 98.56 11.95Q99.46 10.68 100.51 9.83Q101.57 8.98 102.55 8.93L102.55 8.93Q102.79 9.00 103.09 9.22Q103.39 9.43 103.67 9.72Q103.94 10.01 104.14 10.31Q104.33 10.61 104.35 10.82L104.35 10.82Q103.39 10.97 102.37 11.76Q101.35 12.55 100.52 13.67Q99.70 14.78 99.17 16.06Q98.64 17.33 98.64 18.43L98.64 18.43Q98.64 18.89 98.98 19.01L98.98 19.01Q99.67 18.86 100.58 17.82Q101.50 16.78 102.79 14.59L102.79 14.59Q103.03 14.16 103.33 13.63Q103.63 13.10 103.94 12.53Q104.26 11.95 104.56 11.36Q104.86 10.78 105.12 10.22Z" transform="translate(0, 47)"></path></svg>