<?xml version="1.0" standalone="no"?>
<svg xmlns="http://www.w3.org/2000/svg" width="539.0011031929155" height="377.88110319291553" viewBox="0 0 539.0011031929155 377.88110319291553"><g fill="#ead017" color="#ead017" transform="translate(0 0) scale(3.7788111)"><svg width="100.0" height="100.0" x="0.0" y="0.0" viewBox="0 0 100 100"><path d="M51.768,8.977c0,0.191-0.205,0.343-0.458,0.343h-0.286v14.157H48.97V9.321h-0.286c-0.248,0-0.453-0.153-0.453-0.343  c0-0.186,0.205-0.343,0.453-0.343h2.626C51.563,8.634,51.768,8.791,51.768,8.977z"></path><path d="M52.474,25.379v0.153c0,0.248-0.205,0.453-0.458,0.453h-0.038v12.488h-3.956V25.984h-0.038  c-0.253,0-0.458-0.205-0.458-0.453v-0.153c0-0.253,0.205-0.458,0.458-0.458h4.033C52.269,24.922,52.474,25.127,52.474,25.379z"></path><path d="M53.804,40.294v0.153c0,0.253-0.205,0.458-0.458,0.458h-0.305v8.342h-6.087v-8.342h-0.305c-0.248,0-0.453-0.205-0.453-0.458  v-0.153c0-0.253,0.205-0.458,0.453-0.458h6.697C53.599,39.836,53.804,40.041,53.804,40.294z"></path><path d="M56.163,51.061v0.381c0,0.253-0.205,0.458-0.458,0.458h-0.257v5.892H44.552V51.9H44.29c-0.248,0-0.453-0.205-0.453-0.458  v-0.381c0-0.253,0.205-0.458,0.453-0.458h11.416C55.958,50.604,56.163,50.809,56.163,51.061z"></path><circle cx="49.999" cy="7.528" r="0.685"></circle><path d="M52.069,1.084l-0.696,0.372v0.791c0,0.014,0,0.029-0.005,0.043c-0.005,0.081-0.052,0.157-0.129,0.205l-0.61,0.391v3.337  c0,0.124-0.105,0.229-0.229,0.229h-0.858c-0.124,0-0.229-0.105-0.229-0.229V4.187l-0.1,0.319c-0.033,0.1-0.119,0.162-0.219,0.162  c-0.024,0-0.043-0.005-0.067-0.014c-0.119-0.038-0.186-0.162-0.148-0.286l0.51-1.635c0.019-0.062,0.067-0.11,0.124-0.133  c0.014-0.005,0.024-0.014,0.038-0.014c0,0,0-0.005,0.005-0.005c0.024-0.014,0.052-0.019,0.086-0.019h0.186  c-0.157-0.071-0.262-0.229-0.262-0.41c0-0.253,0.205-0.458,0.458-0.458c0.253,0,0.458,0.205,0.458,0.458  c0,0.095-0.029,0.181-0.076,0.257l0.61-0.381V1.699l-0.291,0.157c-0.11,0.062-0.124,0.043-0.029-0.043l0.319-0.286V1.389  c0-0.129,0.1-0.229,0.229-0.229c0.048,0,0.095,0.014,0.133,0.043l0.539-0.481c0.091-0.081,0.229-0.067,0.3,0.038l0.024,0.033  C52.212,0.893,52.178,1.027,52.069,1.084z"></path><rect x="11.191" y="85.394" width="77.854" height="2.016"></rect><path d="M91.968,83.215c0,0.449-0.368,0.817-0.817,0.817h-2.86c-0.449,0-0.817-0.368-0.817-0.817V59.972  c0-0.449,0.368-0.817,0.817-0.817h2.86c0.449,0,0.817,0.368,0.817,0.817V83.215z"></path><path d="M86.112,83.215c0,0.449-0.368,0.817-0.817,0.817h-4.358c-0.449,0-0.817-0.368-0.817-0.817V59.972  c0-0.449,0.368-0.817,0.817-0.817h4.358c0.449,0,0.817,0.368,0.817,0.817V83.215z"></path><path d="M78.757,83.215c0,0.449-0.368,0.817-0.817,0.817h-4.358c-0.449,0-0.817-0.368-0.817-0.817V59.972  c0-0.449,0.368-0.817,0.817-0.817h4.358c0.449,0,0.817,0.368,0.817,0.817V83.215z"></path><path d="M71.403,83.215c0,0.449-0.368,0.817-0.817,0.817h-4.358c-0.449,0-0.817-0.368-0.817-0.817V59.972  c0-0.449,0.368-0.817,0.817-0.817h4.358c0.449,0,0.817,0.368,0.817,0.817V83.215z"></path><path d="M64.049,83.215c0,0.449-0.368,0.817-0.817,0.817h-4.358c-0.449,0-0.817-0.368-0.817-0.817V59.972  c0-0.449,0.368-0.817,0.817-0.817h4.358c0.449,0,0.817,0.368,0.817,0.817V83.215z"></path><path d="M56.695,83.215c0,0.449-0.368,0.817-0.817,0.817H51.52c-0.449,0-0.817-0.368-0.817-0.817V59.972  c0-0.449,0.368-0.817,0.817-0.817h4.358c0.449,0,0.817,0.368,0.817,0.817V83.215z"></path><path d="M8.076,59.972c0-0.449,0.368-0.817,0.817-0.817h2.86c0.449,0,0.817,0.368,0.817,0.817v23.243  c0,0.449-0.368,0.817-0.817,0.817h-2.86c-0.449,0-0.817-0.368-0.817-0.817V59.972z"></path><path d="M13.932,59.972c0-0.449,0.368-0.817,0.817-0.817h4.358c0.449,0,0.817,0.368,0.817,0.817v23.243  c0,0.449-0.368,0.817-0.817,0.817h-4.358c-0.449,0-0.817-0.368-0.817-0.817V59.972z"></path><path d="M21.286,59.972c0-0.449,0.368-0.817,0.817-0.817h4.358c0.449,0,0.817,0.368,0.817,0.817v23.243  c0,0.449-0.368,0.817-0.817,0.817h-4.358c-0.449,0-0.817-0.368-0.817-0.817V59.972z"></path><path d="M28.64,59.972c0-0.449,0.368-0.817,0.817-0.817h4.358c0.449,0,0.817,0.368,0.817,0.817v23.243  c0,0.449-0.368,0.817-0.817,0.817h-4.358c-0.449,0-0.817-0.368-0.817-0.817V59.972z"></path><path d="M35.994,59.972c0-0.449,0.368-0.817,0.817-0.817h4.358c0.449,0,0.817,0.368,0.817,0.817v23.243  c0,0.449-0.368,0.817-0.817,0.817h-4.358c-0.449,0-0.817-0.368-0.817-0.817V59.972z"></path><path d="M43.349,59.972c0-0.449,0.368-0.817,0.817-0.817h4.358c0.449,0,0.817,0.368,0.817,0.817v23.243  c0,0.449-0.368,0.817-0.817,0.817h-4.358c-0.449,0-0.817-0.368-0.817-0.817V59.972z"></path><g><path d="M100,89.257c0,0.295-0.31,0.54-0.691,0.54h-0.52v9.533H1.206v-9.533H0.691C0.31,89.797,0,89.552,0,89.257   c0-0.3,0.31-0.544,0.691-0.544h98.618C99.69,88.713,100,88.957,100,89.257z"></path></g></svg></g><path fill="#000000" fill-rule="nonzero" d="M9.40 26.40L9.40 1.60L5.80 1.60Q0.80 1.60 0.80 6.20L0.80 6.20L0 6.20L0 3.20Q0 0 3.40 0L3.40 0L22 0L22 1.60L13 1.60L13 26.40L9.40 26.40ZM26.72 26.40L26.72 4.80Q26.72 2.76 26.16 1.78Q25.60 0.80 23.92 0.80L23.92 0.80L23.12 0.80L23.12 0L40.16 0Q43.56 0 43.56 3.20L43.56 3.20L43.56 6.20L42.76 6.20Q42.76 1.60 37.76 1.60L37.76 1.60L30.32 1.60L30.32 12.00L41.12 12.00L41.12 13.60L30.32 13.60L30.32 24.80L37.32 24.80Q40.08 24.80 41.64 23.80Q43.20 22.80 44.12 20.40L44.12 20.40L44.92 20.60L43.52 24.40Q42.80 26.40 40.52 26.40L40.52 26.40L26.72 26.40ZM79.72 28.20Q76.84 28.20 75.24 27.32Q73.64 26.44 72.98 24.58Q72.32 22.72 72.32 19.60L72.32 19.60L72.32 4.20L62.32 26.40L61.52 26.40L51.12 3.80L51.12 26.40L49.52 26.40L49.52 0L53.32 0L62.92 20.80L72.32 0L75.92 0L75.92 19.60Q75.92 23.32 76.86 25.36Q77.80 27.40 79.72 27.40L79.72 27.40L79.72 28.20ZM84.28 26.40L84.28 4.80Q84.28 2.76 83.72 1.78Q83.16 0.80 81.48 0.80L81.48 0.80L80.68 0.80L80.68 0L91.08 0Q94.92 0 98 1.64Q101.08 3.28 101.08 8L101.08 8Q101.08 11.12 99.48 12.80Q97.88 14.48 95.90 15.04Q93.92 15.60 92.28 15.60L92.28 15.60L87.88 15.60L87.88 26.40L84.28 26.40ZM90.88 14.20Q92.16 14.20 93.60 13.54Q95.04 12.88 96.06 11.44Q97.08 10.00 97.08 7.80L97.08 7.80Q97.08 5.60 96.06 4.16Q95.04 2.72 93.60 2.06Q92.16 1.40 90.88 1.40L90.88 1.40Q89.48 1.40 87.88 1.80L87.88 1.80L87.88 13.80Q89.48 14.20 90.88 14.20L90.88 14.20ZM106.36 26.40L106.36 4.80Q106.36 2.76 105.80 1.78Q105.24 0.80 103.56 0.80L103.56 0.80L102.76 0.80L102.76 0L106.36 0Q107.84 0 108.58 0.38Q109.32 0.76 109.64 1.76Q109.96 2.76 109.96 4.80L109.96 4.80L109.96 24.80L124.16 24.80L124.16 26.40L106.36 26.40ZM127.92 26.40L127.92 4.80Q127.92 2.76 127.36 1.78Q126.80 0.80 125.12 0.80L125.12 0.80L124.32 0.80L124.32 0L141.36 0Q144.76 0 144.76 3.20L144.76 3.20L144.76 6.20L143.96 6.20Q143.96 1.60 138.96 1.60L138.96 1.60L131.52 1.60L131.52 12.00L142.32 12.00L142.32 13.60L131.52 13.60L131.52 24.80L138.52 24.80Q141.28 24.80 142.84 23.80Q144.40 22.80 145.32 20.40L145.32 20.40L146.12 20.60L144.72 24.40Q144 26.40 141.72 26.40L141.72 26.40L127.92 26.40Z" transform="translate(392.882 0) scale(1)"></path><path fill="#000000" fill-rule="nonzero" d="M3.60 26.40Q2.12 26.40 1.38 26.02Q0.64 25.64 0.32 24.64Q0 23.64 0 21.60L0 21.60L0 0L3.60 0L3.60 21.60Q3.60 23.64 4.16 24.62Q4.72 25.60 6.40 25.60L6.40 25.60L7.20 25.60L7.20 26.40L3.60 26.40ZM31.04 26.80L13.84 5.40L13.84 26.40L12.24 26.40L12.24 4.80Q12.24 2.88 11.42 1.84Q10.60 0.80 8.64 0.80L8.64 0.80L8.24 0.80L8.24 0L10.84 0Q12.68 0 13.96 0.60Q15.24 1.20 16.24 2.40L16.24 2.40L30.24 19.80L30.24 0L31.84 0L31.84 26.80L31.04 26.80ZM58.44 26.80L41.24 5.40L41.24 26.40L39.64 26.40L39.64 4.80Q39.64 2.88 38.82 1.84Q38 0.80 36.04 0.80L36.04 0.80L35.64 0.80L35.64 0L38.24 0Q40.08 0 41.36 0.60Q42.64 1.20 43.64 2.40L43.64 2.40L57.64 19.80L57.64 0L59.24 0L59.24 26.80L58.44 26.80Z" transform="translate(392.882 36.2) scale(2.467)"></path><path fill="#000000" fill-rule="nonzero" d="M8.40 28Q4.36 28 2.18 26.22Q0 24.44 0 21.60L0 21.60Q0 20.04 0.76 18.78Q1.52 17.52 2.58 16.60Q3.64 15.68 5.72 14.16L5.72 14.16Q4.40 12.96 3.64 11.92L3.64 11.92Q2.72 10.76 2.16 9.30Q1.60 7.84 1.60 6.24L1.60 6.24Q1.60 3.36 3.54 1.68Q5.48 0 8.80 0L8.80 0Q11.88 0 13.64 1.56Q15.40 3.12 15.40 5.60L15.40 5.60Q15.40 7.36 14.64 8.74Q13.88 10.12 12.68 11.20Q11.48 12.28 9.56 13.60L9.56 13.60L17.60 22.40Q19.04 20.84 20.24 19L20.24 19Q20.84 18.04 21.20 17.40L21.20 17.40L22 18Q21.56 18.92 21.12 19.68L21.12 19.68Q19.92 21.72 18.44 23.32L18.44 23.32L22 27.20L17.60 27.20L16 25.48Q12.64 28 8.40 28L8.40 28ZM8.32 12.20Q10.12 10.68 11.06 9.26Q12 7.84 12 6L12 6Q12 3.68 11.02 2.54Q10.04 1.40 8.80 1.40L8.80 1.40Q7.40 1.40 6.40 2.56Q5.40 3.72 5.40 6.24L5.40 6.24Q5.40 7.64 6 8.94Q6.60 10.24 7.32 11.12Q8.04 12.00 8.32 12.20L8.32 12.20ZM9.16 26.60Q12.52 26.60 15.16 24.56L15.16 24.56L6.92 15.56Q5.40 16.88 4.60 18.20Q3.80 19.52 3.80 21.20L3.80 21.20Q3.80 26.60 9.16 26.60L9.16 26.60Z" transform="translate(392.882 110.305) scale(6.642)"></path><path fill="#000000" fill-rule="nonzero" d="M9.12 27.80Q6.92 27.80 4.80 27.20Q2.68 26.60 1.34 25.48Q0 24.36 0 22.92L0 22.92L0 18.64L0.72 18.64Q1.40 22.64 3.36 24.42Q5.32 26.20 8.76 26.20L8.76 26.20Q10.92 26.20 12.46 25.12Q14 24.04 14 22.12L14 22.12Q14 20.44 12.96 19.20Q11.92 17.96 9.60 16.60L9.60 16.60L4.68 13.68Q2.12 12.16 1.06 10.60Q0 9.04 0 6.80L0 6.80Q0 3.72 2.14 1.86Q4.28 0 7.76 0L7.76 0Q9.80 0 11.80 0.58Q13.80 1.16 15.10 2.26Q16.40 3.36 16.40 4.80L16.40 4.80L16.40 9.08L15.68 9.08Q15 5.08 13.10 3.34Q11.20 1.60 7.76 1.60L7.76 1.60Q5.92 1.60 4.52 2.72Q3.12 3.84 3.12 5.64L3.12 5.64Q3.12 7.28 4.14 8.36Q5.16 9.44 7.56 10.88L7.56 10.88L12.48 13.80Q15.20 15.44 16.32 16.84Q17.44 18.24 17.44 20.40L17.44 20.40Q17.44 23.76 15.20 25.78Q12.96 27.80 9.12 27.80L9.12 27.80ZM33.32 27.52Q29.48 27.52 27.24 26.22Q25 24.92 24.06 22.36Q23.12 19.80 23.12 15.72L23.12 15.72L23.12 5.52Q23.12 3.48 22.56 2.50Q22 1.52 20.32 1.52L20.32 1.52L19.52 1.52L19.52 0.72L23.12 0.72Q24.60 0.72 25.34 1.10Q26.08 1.48 26.40 2.48Q26.72 3.48 26.72 5.52L26.72 5.52L26.72 16.92Q26.72 21.36 28.36 23.64Q30 25.92 33.80 25.92L33.80 25.92Q36.84 25.92 38.62 24.84Q40.40 23.76 41.16 21.56Q41.92 19.36 41.92 15.72L41.92 15.72L41.92 0.72L43.52 0.72L43.52 15.72Q43.52 19.88 42.64 22.42Q41.76 24.96 39.54 26.24Q37.32 27.52 33.32 27.52L33.32 27.52ZM53.80 27.12Q52.32 27.12 51.58 26.74Q50.84 26.36 50.52 25.36Q50.20 24.36 50.20 22.32L50.20 22.32L50.20 0.72L53.80 0.72L53.80 22.32Q53.80 24.36 54.36 25.34Q54.92 26.32 56.60 26.32L56.60 26.32L57.40 26.32L57.40 27.12L53.80 27.12ZM68.04 27.12L68.04 2.32L64.44 2.32Q59.44 2.32 59.44 6.92L59.44 6.92L58.64 6.92L58.64 3.92Q58.64 0.72 62.04 0.72L62.04 0.72L80.64 0.72L80.64 2.32L71.64 2.32L71.64 27.12L68.04 27.12ZM85.36 27.12L85.36 5.52Q85.36 3.48 84.80 2.50Q84.24 1.52 82.56 1.52L82.56 1.52L81.76 1.52L81.76 0.72L98.80 0.72Q102.20 0.72 102.20 3.92L102.20 3.92L102.20 6.92L101.40 6.92Q101.40 2.32 96.40 2.32L96.40 2.32L88.96 2.32L88.96 12.72L99.76 12.72L99.76 14.32L88.96 14.32L88.96 25.52L95.96 25.52Q98.72 25.52 100.28 24.52Q101.84 23.52 102.76 21.12L102.76 21.12L103.56 21.32L102.16 25.12Q101.44 27.12 99.16 27.12L99.16 27.12L85.36 27.12ZM116 27.80Q113.80 27.80 111.68 27.20Q109.56 26.60 108.22 25.48Q106.88 24.36 106.88 22.92L106.88 22.92L106.88 18.64L107.60 18.64Q108.28 22.64 110.24 24.42Q112.20 26.20 115.64 26.20L115.64 26.20Q117.80 26.20 119.34 25.12Q120.88 24.04 120.88 22.12L120.88 22.12Q120.88 20.44 119.84 19.20Q118.80 17.96 116.48 16.60L116.48 16.60L111.56 13.68Q109 12.16 107.94 10.60Q106.88 9.04 106.88 6.80L106.88 6.80Q106.88 3.72 109.02 1.86Q111.16 0 114.64 0L114.64 0Q116.68 0 118.68 0.58Q120.68 1.16 121.98 2.26Q123.28 3.36 123.28 4.80L123.28 4.80L123.28 9.08L122.56 9.08Q121.88 5.08 119.98 3.34Q118.08 1.60 114.64 1.60L114.64 1.60Q112.80 1.60 111.40 2.72Q110 3.84 110 5.64L110 5.64Q110 7.28 111.02 8.36Q112.04 9.44 114.44 10.88L114.44 10.88L119.36 13.80Q122.08 15.44 123.20 16.84Q124.32 18.24 124.32 20.40L124.32 20.40Q124.32 23.76 122.08 25.78Q119.84 27.80 116 27.80L116 27.80Z" transform="translate(392.882 304.276) scale(1.176)"></path><path fill="#000000" fill-rule="nonzero" d="M3.60 27.20L3.60 5.60Q3.60 3.56 3.04 2.58Q2.48 1.60 0.80 1.60L0.80 1.60L0 1.60L0 0.80L3.60 0.80Q5.08 0.80 5.82 1.18Q6.56 1.56 6.88 2.56Q7.20 3.56 7.20 5.60L7.20 5.60L7.20 12.80L19.20 12.80L19.20 0.80L22.80 0.80L22.80 22.40Q22.80 24.44 23.36 25.42Q23.92 26.40 25.60 26.40L25.60 26.40L26.40 26.40L26.40 27.20L22.80 27.20Q21.32 27.20 20.58 26.82Q19.84 26.44 19.52 25.44Q19.20 24.44 19.20 22.40L19.20 22.40L19.20 14.40L7.20 14.40L7.20 27.20L3.60 27.20ZM41.04 28Q37.32 28 34.50 26.16Q31.68 24.32 30.16 21.12Q28.64 17.92 28.64 14.00L28.64 14.00Q28.64 10.08 30.16 6.88Q31.68 3.68 34.50 1.84Q37.32 0 41.04 0L41.04 0Q44.76 0 47.58 1.84Q50.40 3.68 51.92 6.88Q53.44 10.08 53.44 14.00L53.44 14.00Q53.44 17.92 51.92 21.12Q50.40 24.32 47.58 26.16Q44.76 28 41.04 28L41.04 28ZM41.04 26.40Q43.64 26.40 45.54 24.88Q47.44 23.36 48.44 20.58Q49.44 17.80 49.44 14.00L49.44 14.00Q49.44 10.20 48.44 7.42Q47.44 4.64 45.54 3.12Q43.64 1.60 41.04 1.60L41.04 1.60Q38.44 1.60 36.54 3.12Q34.64 4.64 33.64 7.42Q32.64 10.20 32.64 14.00L32.64 14.00Q32.64 17.80 33.64 20.58Q34.64 23.36 36.54 24.88Q38.44 26.40 41.04 26.40L41.04 26.40ZM65.52 27.20L65.52 2.40L61.92 2.40Q56.92 2.40 56.92 7L56.92 7L56.12 7L56.12 4Q56.12 0.80 59.52 0.80L59.52 0.80L78.12 0.80L78.12 2.40L69.12 2.40L69.12 27.20L65.52 27.20ZM82.84 27.20L82.84 5.60Q82.84 3.56 82.28 2.58Q81.72 1.60 80.04 1.60L80.04 1.60L79.24 1.60L79.24 0.80L96.28 0.80Q99.68 0.80 99.68 4L99.68 4L99.68 7L98.88 7Q98.88 2.40 93.88 2.40L93.88 2.40L86.44 2.40L86.44 12.80L97.24 12.80L97.24 14.40L86.44 14.40L86.44 25.60L93.44 25.60Q96.20 25.60 97.76 24.60Q99.32 23.60 100.24 21.20L100.24 21.20L101.04 21.40L99.64 25.20Q98.92 27.20 96.64 27.20L96.64 27.20L82.84 27.20ZM106.44 27.20L106.44 5.60Q106.44 3.56 105.88 2.58Q105.32 1.60 103.64 1.60L103.64 1.60L102.84 1.60L102.84 0.80L106.44 0.80Q107.92 0.80 108.66 1.18Q109.40 1.56 109.72 2.56Q110.04 3.56 110.04 5.60L110.04 5.60L110.04 25.60L124.24 25.60L124.24 27.20L106.44 27.20Z" transform="translate(392.882 344.951) scale(1.177)"></path></svg>