<?xml version="1.0" standalone="no"?>
<svg xmlns="http://www.w3.org/2000/svg" viewBox="0 0 260 68" width="260" height="68"><g fill="#ead017" color="#ead017" transform="translate(112.064 0) scale(0.35) "><svg width="100.0" height="100.0" x="0.0" y="0.0" viewBox="0 0 100 100"><path d="M51.768,8.977c0,0.191-0.205,0.343-0.458,0.343h-0.286v14.157H48.97V9.321h-0.286c-0.248,0-0.453-0.153-0.453-0.343  c0-0.186,0.205-0.343,0.453-0.343h2.626C51.563,8.634,51.768,8.791,51.768,8.977z"></path><path d="M52.474,25.379v0.153c0,0.248-0.205,0.453-0.458,0.453h-0.038v12.488h-3.956V25.984h-0.038  c-0.253,0-0.458-0.205-0.458-0.453v-0.153c0-0.253,0.205-0.458,0.458-0.458h4.033C52.269,24.922,52.474,25.127,52.474,25.379z"></path><path d="M53.804,40.294v0.153c0,0.253-0.205,0.458-0.458,0.458h-0.305v8.342h-6.087v-8.342h-0.305c-0.248,0-0.453-0.205-0.453-0.458  v-0.153c0-0.253,0.205-0.458,0.453-0.458h6.697C53.599,39.836,53.804,40.041,53.804,40.294z"></path><path d="M56.163,51.061v0.381c0,0.253-0.205,0.458-0.458,0.458h-0.257v5.892H44.552V51.9H44.29c-0.248,0-0.453-0.205-0.453-0.458  v-0.381c0-0.253,0.205-0.458,0.453-0.458h11.416C55.958,50.604,56.163,50.809,56.163,51.061z"></path><circle cx="49.999" cy="7.528" r="0.685"></circle><path d="M52.069,1.084l-0.696,0.372v0.791c0,0.014,0,0.029-0.005,0.043c-0.005,0.081-0.052,0.157-0.129,0.205l-0.61,0.391v3.337  c0,0.124-0.105,0.229-0.229,0.229h-0.858c-0.124,0-0.229-0.105-0.229-0.229V4.187l-0.1,0.319c-0.033,0.1-0.119,0.162-0.219,0.162  c-0.024,0-0.043-0.005-0.067-0.014c-0.119-0.038-0.186-0.162-0.148-0.286l0.51-1.635c0.019-0.062,0.067-0.11,0.124-0.133  c0.014-0.005,0.024-0.014,0.038-0.014c0,0,0-0.005,0.005-0.005c0.024-0.014,0.052-0.019,0.086-0.019h0.186  c-0.157-0.071-0.262-0.229-0.262-0.41c0-0.253,0.205-0.458,0.458-0.458c0.253,0,0.458,0.205,0.458,0.458  c0,0.095-0.029,0.181-0.076,0.257l0.61-0.381V1.699l-0.291,0.157c-0.11,0.062-0.124,0.043-0.029-0.043l0.319-0.286V1.389  c0-0.129,0.1-0.229,0.229-0.229c0.048,0,0.095,0.014,0.133,0.043l0.539-0.481c0.091-0.081,0.229-0.067,0.3,0.038l0.024,0.033  C52.212,0.893,52.178,1.027,52.069,1.084z"></path><rect x="11.191" y="85.394" width="77.854" height="2.016"></rect><path d="M91.968,83.215c0,0.449-0.368,0.817-0.817,0.817h-2.86c-0.449,0-0.817-0.368-0.817-0.817V59.972  c0-0.449,0.368-0.817,0.817-0.817h2.86c0.449,0,0.817,0.368,0.817,0.817V83.215z"></path><path d="M86.112,83.215c0,0.449-0.368,0.817-0.817,0.817h-4.358c-0.449,0-0.817-0.368-0.817-0.817V59.972  c0-0.449,0.368-0.817,0.817-0.817h4.358c0.449,0,0.817,0.368,0.817,0.817V83.215z"></path><path d="M78.757,83.215c0,0.449-0.368,0.817-0.817,0.817h-4.358c-0.449,0-0.817-0.368-0.817-0.817V59.972  c0-0.449,0.368-0.817,0.817-0.817h4.358c0.449,0,0.817,0.368,0.817,0.817V83.215z"></path><path d="M71.403,83.215c0,0.449-0.368,0.817-0.817,0.817h-4.358c-0.449,0-0.817-0.368-0.817-0.817V59.972  c0-0.449,0.368-0.817,0.817-0.817h4.358c0.449,0,0.817,0.368,0.817,0.817V83.215z"></path><path d="M64.049,83.215c0,0.449-0.368,0.817-0.817,0.817h-4.358c-0.449,0-0.817-0.368-0.817-0.817V59.972  c0-0.449,0.368-0.817,0.817-0.817h4.358c0.449,0,0.817,0.368,0.817,0.817V83.215z"></path><path d="M56.695,83.215c0,0.449-0.368,0.817-0.817,0.817H51.52c-0.449,0-0.817-0.368-0.817-0.817V59.972  c0-0.449,0.368-0.817,0.817-0.817h4.358c0.449,0,0.817,0.368,0.817,0.817V83.215z"></path><path d="M8.076,59.972c0-0.449,0.368-0.817,0.817-0.817h2.86c0.449,0,0.817,0.368,0.817,0.817v23.243  c0,0.449-0.368,0.817-0.817,0.817h-2.86c-0.449,0-0.817-0.368-0.817-0.817V59.972z"></path><path d="M13.932,59.972c0-0.449,0.368-0.817,0.817-0.817h4.358c0.449,0,0.817,0.368,0.817,0.817v23.243  c0,0.449-0.368,0.817-0.817,0.817h-4.358c-0.449,0-0.817-0.368-0.817-0.817V59.972z"></path><path d="M21.286,59.972c0-0.449,0.368-0.817,0.817-0.817h4.358c0.449,0,0.817,0.368,0.817,0.817v23.243  c0,0.449-0.368,0.817-0.817,0.817h-4.358c-0.449,0-0.817-0.368-0.817-0.817V59.972z"></path><path d="M28.64,59.972c0-0.449,0.368-0.817,0.817-0.817h4.358c0.449,0,0.817,0.368,0.817,0.817v23.243  c0,0.449-0.368,0.817-0.817,0.817h-4.358c-0.449,0-0.817-0.368-0.817-0.817V59.972z"></path><path d="M35.994,59.972c0-0.449,0.368-0.817,0.817-0.817h4.358c0.449,0,0.817,0.368,0.817,0.817v23.243  c0,0.449-0.368,0.817-0.817,0.817h-4.358c-0.449,0-0.817-0.368-0.817-0.817V59.972z"></path><path d="M43.349,59.972c0-0.449,0.368-0.817,0.817-0.817h4.358c0.449,0,0.817,0.368,0.817,0.817v23.243  c0,0.449-0.368,0.817-0.817,0.817h-4.358c-0.449,0-0.817-0.368-0.817-0.817V59.972z"></path><g><path d="M100,89.257c0,0.295-0.31,0.54-0.691,0.54h-0.52v9.533H1.206v-9.533H0.691C0.31,89.797,0,89.552,0,89.257   c0-0.3,0.31-0.544,0.691-0.544h98.618C99.69,88.713,100,88.957,100,89.257z"></path></g></svg></g><line x1="113.11399999999999" y1="41" x2="146.01399999999998" y2="41" stroke="#000000" stroke-linecap="round"></line><path fill="#000000" fill-rule="nonzero" d="M5.64 16.32L5.64 1.44L3.48 1.44Q0.48 1.44 0.48 4.20L0.48 4.20L0 4.20L0 2.40Q0 0.48 2.04 0.48L2.04 0.48L13.20 0.48L13.20 1.44L7.80 1.44L7.80 16.32L5.64 16.32ZM17.54 16.56Q15.91 16.56 14.78 15.78Q13.66 15 13.08 13.67Q12.50 12.34 12.50 10.68L12.50 10.68Q12.50 9.05 13.08 7.70Q13.66 6.36 14.75 5.58Q15.84 4.80 17.30 4.80L17.30 4.80Q19.73 4.80 20.92 6.16Q22.10 7.51 22.10 10.08L22.10 10.08L22.06 11.04L14.78 11.04Q14.78 13.06 15.65 14.33Q16.51 15.60 18.02 15.60L18.02 15.60Q19.15 15.60 19.93 15.12Q20.71 14.64 21.38 13.68L21.38 13.68L21.86 14.04Q21.07 15.36 20.02 15.96Q18.96 16.56 17.54 16.56L17.54 16.56ZM14.78 10.08L19.82 10.08Q19.82 7.97 19.20 6.86Q18.58 5.76 17.30 5.76L17.30 5.76Q16.58 5.76 16.01 6.32Q15.43 6.89 15.11 7.87Q14.78 8.86 14.78 10.08L14.78 10.08ZM25.22 16.32L25.22 7.92Q25.22 6.70 24.89 6.11Q24.55 5.52 23.54 5.52L23.54 5.52L23.06 5.52L23.06 5.04L25.22 5.04Q26.11 5.04 26.58 5.28Q27.05 5.52 27.26 6L27.26 6L27.38 6Q27.89 5.50 28.69 5.15Q29.50 4.80 30.50 4.80L30.50 4.80Q31.51 4.80 32.23 5.17Q32.95 5.54 33.38 6.48L33.38 6.48Q34.01 5.69 34.98 5.24Q35.95 4.80 36.98 4.80L36.98 4.80Q38.52 4.80 39.43 5.76Q40.34 6.72 40.34 9.12L40.34 9.12L40.34 16.32L38.18 16.32L38.18 9.12Q38.18 7.39 37.70 6.64Q37.22 5.88 36.26 5.88L36.26 5.88Q35.59 5.88 34.85 6.37Q34.10 6.86 33.74 7.44L33.74 7.44Q33.86 7.80 33.86 9.12L33.86 9.12L33.86 16.32L31.70 16.32L31.70 9.12Q31.70 7.39 31.22 6.64Q30.74 5.88 29.78 5.88L29.78 5.88Q28.51 5.88 27.38 7.15L27.38 7.15L27.38 16.32L25.22 16.32ZM44.06 20.88L44.06 7.92Q44.06 6.70 43.73 6.11Q43.39 5.52 42.38 5.52L42.38 5.52L41.90 5.52L41.90 5.04L44.06 5.04Q44.98 5.04 45.44 5.29Q45.91 5.54 46.10 6.12L46.10 6.12L46.22 6.12Q46.66 5.57 47.45 5.18Q48.24 4.80 49.46 4.80L49.46 4.80Q51.53 4.80 52.66 6.47Q53.78 8.14 53.78 10.68L53.78 10.68Q53.78 13.25 52.62 14.90Q51.46 16.56 49.22 16.56L49.22 16.56Q48.31 16.56 47.62 16.37Q46.92 16.18 46.22 15.84L46.22 15.84L46.22 20.88L44.06 20.88ZM48.50 15.60Q50.04 15.60 50.77 14.26Q51.50 12.91 51.50 10.68L51.50 10.68Q51.50 8.47 50.81 7.12Q50.11 5.76 48.74 5.76L48.74 5.76Q47.14 5.76 46.22 7.20L46.22 7.20L46.22 14.88Q46.94 15.22 47.47 15.41Q48 15.60 48.50 15.60L48.50 15.60ZM56.71 16.32L56.71 3.36Q56.71 2.14 56.38 1.55Q56.04 0.96 55.03 0.96L55.03 0.96L54.55 0.96L54.55 0.48L56.71 0.48Q57.60 0.48 58.04 0.71Q58.49 0.94 58.68 1.54Q58.87 2.14 58.87 3.36L58.87 3.36L58.87 16.32L56.71 16.32ZM66.82 16.56Q65.18 16.56 64.06 15.78Q62.93 15 62.35 13.67Q61.78 12.34 61.78 10.68L61.78 10.68Q61.78 9.05 62.35 7.70Q62.93 6.36 64.02 5.58Q65.11 4.80 66.58 4.80L66.58 4.80Q69 4.80 70.19 6.16Q71.38 7.51 71.38 10.08L71.38 10.08L71.33 11.04L64.06 11.04Q64.06 13.06 64.92 14.33Q65.78 15.60 67.30 15.60L67.30 15.60Q68.42 15.60 69.20 15.12Q69.98 14.64 70.66 13.68L70.66 13.68L71.14 14.04Q70.34 15.36 69.29 15.96Q68.23 16.56 66.82 16.56L66.82 16.56ZM64.06 10.08L69.10 10.08Q69.10 7.97 68.47 6.86Q67.85 5.76 66.58 5.76L66.58 5.76Q65.86 5.76 65.28 6.32Q64.70 6.89 64.38 7.87Q64.06 8.86 64.06 10.08L64.06 10.08ZM82.70 16.32Q81.82 16.32 81.37 16.09Q80.93 15.86 80.74 15.26Q80.54 14.66 80.54 13.44L80.54 13.44L80.54 0.48L82.70 0.48L82.70 13.44Q82.70 14.66 83.04 15.25Q83.38 15.84 84.38 15.84L84.38 15.84L84.86 15.84L84.86 16.32L82.70 16.32ZM87.34 16.32L87.34 7.92Q87.34 6.70 87 6.11Q86.66 5.52 85.66 5.52L85.66 5.52L85.18 5.52L85.18 5.04L87.34 5.04Q88.22 5.04 88.69 5.28Q89.16 5.52 89.38 6L89.38 6L89.50 6Q90 5.50 90.80 5.15Q91.61 4.80 92.62 4.80L92.62 4.80Q94.42 4.80 95.56 5.76Q96.70 6.72 96.70 9.12L96.70 9.12L96.70 16.32L94.54 16.32L94.54 9.12Q94.54 7.44 93.78 6.66Q93.02 5.88 91.90 5.88L91.90 5.88Q90.62 5.88 89.50 7.15L89.50 7.15L89.50 16.32L87.34 16.32ZM100.39 16.32L100.39 7.92Q100.39 6.70 100.06 6.11Q99.72 5.52 98.71 5.52L98.71 5.52L98.23 5.52L98.23 5.04L100.39 5.04Q101.28 5.04 101.75 5.28Q102.22 5.52 102.43 6L102.43 6L102.55 6Q103.06 5.50 103.86 5.15Q104.66 4.80 105.67 4.80L105.67 4.80Q107.47 4.80 108.61 5.76Q109.75 6.72 109.75 9.12L109.75 9.12L109.75 16.32L107.59 16.32L107.59 9.12Q107.59 7.44 106.84 6.66Q106.08 5.88 104.95 5.88L104.95 5.88Q103.68 5.88 102.55 7.15L102.55 7.15L102.55 16.32L100.39 16.32ZM123.41 16.80Q120.98 16.80 119.68 15.73Q118.37 14.66 118.37 12.96L118.37 12.96Q118.37 12.02 118.82 11.27Q119.28 10.51 119.92 9.96Q120.55 9.41 121.80 8.50L121.80 8.50Q121.01 7.78 120.55 7.15L120.55 7.15Q120 6.46 119.66 5.58Q119.33 4.70 119.33 3.74L119.33 3.74Q119.33 2.02 120.49 1.01Q121.66 0 123.65 0L123.65 0Q125.50 0 126.55 0.94Q127.61 1.87 127.61 3.36L127.61 3.36Q127.61 4.42 127.15 5.24Q126.70 6.07 125.98 6.72Q125.26 7.37 124.10 8.16L124.10 8.16L128.93 13.44Q129.79 12.50 130.51 11.40L130.51 11.40Q130.87 10.82 131.09 10.44L131.09 10.44L131.57 10.80Q131.30 11.35 131.04 11.81L131.04 11.81Q130.32 13.03 129.43 13.99L129.43 13.99L131.57 16.32L128.93 16.32L127.97 15.29Q125.95 16.80 123.41 16.80L123.41 16.80ZM123.36 7.32Q124.44 6.41 125.00 5.56Q125.57 4.70 125.57 3.60L125.57 3.60Q125.57 2.21 124.98 1.52Q124.39 0.84 123.65 0.84L123.65 0.84Q122.81 0.84 122.21 1.54Q121.61 2.23 121.61 3.74L121.61 3.74Q121.61 4.58 121.97 5.36Q122.33 6.14 122.76 6.67Q123.19 7.20 123.36 7.32L123.36 7.32ZM123.86 15.96Q125.88 15.96 127.46 14.74L127.46 14.74L122.52 9.34Q121.61 10.13 121.13 10.92Q120.65 11.71 120.65 12.72L120.65 12.72Q120.65 15.96 123.86 15.96L123.86 15.96ZM144.91 16.73Q143.59 16.73 142.32 16.37Q141.05 16.01 140.24 15.34Q139.44 14.66 139.44 13.80L139.44 13.80L139.44 11.23L139.87 11.23Q140.28 13.63 141.46 14.70Q142.63 15.77 144.70 15.77L144.70 15.77Q145.99 15.77 146.92 15.12Q147.84 14.47 147.84 13.32L147.84 13.32Q147.84 12.31 147.22 11.57Q146.59 10.82 145.20 10.01L145.20 10.01L142.25 8.26Q140.71 7.34 140.08 6.41Q139.44 5.47 139.44 4.13L139.44 4.13Q139.44 2.28 140.72 1.16Q142.01 0.05 144.10 0.05L144.10 0.05Q145.32 0.05 146.52 0.40Q147.72 0.74 148.50 1.40Q149.28 2.06 149.28 2.93L149.28 2.93L149.28 5.50L148.85 5.50Q148.44 3.10 147.30 2.05Q146.16 1.01 144.10 1.01L144.10 1.01Q142.99 1.01 142.15 1.68Q141.31 2.35 141.31 3.43L141.31 3.43Q141.31 4.42 141.92 5.06Q142.54 5.71 143.98 6.58L143.98 6.58L146.93 8.33Q148.56 9.31 149.23 10.15Q149.90 10.99 149.90 12.29L149.90 12.29Q149.90 14.30 148.56 15.52Q147.22 16.73 144.91 16.73L144.91 16.73ZM156.77 16.56Q154.97 16.56 153.83 15.60Q152.69 14.64 152.69 12.24L152.69 12.24L152.69 7.92Q152.69 6.70 152.35 6.11Q152.02 5.52 151.01 5.52L151.01 5.52L150.77 5.52L150.77 5.04L152.69 5.04Q153.58 5.04 154.02 5.27Q154.46 5.50 154.66 6.10Q154.85 6.70 154.85 7.92L154.85 7.92L154.85 12.24Q154.85 13.92 155.60 14.70Q156.36 15.48 157.49 15.48L157.49 15.48Q158.76 15.48 159.89 14.21L159.89 14.21L159.89 5.04L162.05 5.04L162.05 16.32L160.85 16.32L160.01 15.36L159.89 15.36Q159.38 15.86 158.58 16.21Q157.78 16.56 156.77 16.56L156.77 16.56ZM166.78 3.60Q166.22 3.60 165.83 3.14Q165.43 2.69 165.43 2.06L165.43 2.06Q165.43 1.56 165.73 1.27Q166.03 0.98 166.54 0.98L166.54 0.98Q167.09 0.98 167.48 1.44Q167.88 1.90 167.88 2.52L167.88 2.52Q167.88 3.02 167.58 3.31Q167.28 3.60 166.78 3.60L166.78 3.60ZM165.86 16.32L165.86 7.92Q165.86 6.70 165.53 6.11Q165.19 5.52 164.18 5.52L164.18 5.52L163.70 5.52L163.70 5.04L165.86 5.04Q166.75 5.04 167.20 5.27Q167.64 5.50 167.83 6.10Q168.02 6.70 168.02 7.92L168.02 7.92L168.02 16.32L165.86 16.32ZM174.74 16.56Q173.40 16.56 172.63 15.79Q171.86 15.02 171.86 13.44L171.86 13.44L171.86 6L170.18 6L170.18 5.04L171.86 5.04L171.86 2.88L173.06 1.44L174.02 1.44L174.02 5.04L176.90 5.04L176.90 6L174.02 6L174.02 13.44Q174.02 15.60 175.70 15.60L175.70 15.60Q176.28 15.60 176.68 15.48Q177.07 15.36 177.50 15.12L177.50 15.12L177.74 15.60Q177.19 16.01 176.52 16.28Q175.85 16.56 174.74 16.56L174.74 16.56ZM183.91 16.56Q182.28 16.56 181.15 15.78Q180.02 15 179.45 13.67Q178.87 12.34 178.87 10.68L178.87 10.68Q178.87 9.05 179.45 7.70Q180.02 6.36 181.12 5.58Q182.21 4.80 183.67 4.80L183.67 4.80Q186.10 4.80 187.28 6.16Q188.47 7.51 188.47 10.08L188.47 10.08L188.42 11.04L181.15 11.04Q181.15 13.06 182.02 14.33Q182.88 15.60 184.39 15.60L184.39 15.60Q185.52 15.60 186.30 15.12Q187.08 14.64 187.75 13.68L187.75 13.68L188.23 14.04Q187.44 15.36 186.38 15.96Q185.33 16.56 183.91 16.56L183.91 16.56ZM181.15 10.08L186.19 10.08Q186.19 7.97 185.57 6.86Q184.94 5.76 183.67 5.76L183.67 5.76Q182.95 5.76 182.38 6.32Q181.80 6.89 181.48 7.87Q181.15 8.86 181.15 10.08L181.15 10.08ZM195 16.56Q192.24 16.56 191.28 15.60L191.28 15.60Q190.87 15.19 190.78 14.68Q190.68 14.16 190.68 13.08L190.68 13.08L191.16 13.08Q191.38 14.28 192.20 14.94Q193.03 15.60 194.52 15.60L194.52 15.60Q195.84 15.60 196.50 15.14Q197.16 14.69 197.16 13.92L197.16 13.92Q197.16 13.22 196.64 12.72Q196.13 12.22 195 11.76L195 11.76L193.56 11.16Q192.12 10.58 191.40 9.82Q190.68 9.05 190.68 7.92L190.68 7.92Q190.68 6.46 191.78 5.63Q192.89 4.80 194.64 4.80L194.64 4.80Q197.28 4.80 198.24 5.76L198.24 5.76Q198.65 6.17 198.74 6.67Q198.84 7.18 198.84 8.28L198.84 8.28L198.36 8.28Q198.17 7.08 197.35 6.42Q196.54 5.76 195.12 5.76L195.12 5.76Q193.99 5.76 193.36 6.23Q192.72 6.70 192.72 7.44L192.72 7.44Q192.72 8.69 194.64 9.48L194.64 9.48L196.08 10.08Q197.71 10.75 198.46 11.51Q199.20 12.26 199.20 13.44L199.20 13.44Q199.20 14.90 198.02 15.73Q196.85 16.56 195 16.56L195 16.56ZM208.75 16.32L208.75 3.36Q208.75 2.14 208.42 1.55Q208.08 0.96 207.07 0.96L207.07 0.96L206.59 0.96L206.59 0.48L208.75 0.48Q209.64 0.48 210.08 0.71Q210.53 0.94 210.72 1.54Q210.91 2.14 210.91 3.36L210.91 3.36L210.91 7.68L218.11 7.68L218.11 0.48L220.27 0.48L220.27 13.44Q220.27 14.66 220.61 15.25Q220.94 15.84 221.95 15.84L221.95 15.84L222.43 15.84L222.43 16.32L220.27 16.32Q219.38 16.32 218.94 16.09Q218.50 15.86 218.30 15.26Q218.11 14.66 218.11 13.44L218.11 13.44L218.11 8.64L210.91 8.64L210.91 16.32L208.75 16.32ZM228.96 16.56Q227.33 16.56 226.13 15.78Q224.93 15 224.30 13.66Q223.68 12.31 223.68 10.68L223.68 10.68Q223.68 9.05 224.30 7.70Q224.93 6.36 226.13 5.58Q227.33 4.80 228.96 4.80L228.96 4.80Q230.59 4.80 231.79 5.58Q232.99 6.36 233.62 7.70Q234.24 9.05 234.24 10.68L234.24 10.68Q234.24 12.31 233.62 13.66Q232.99 15 231.79 15.78Q230.59 16.56 228.96 16.56L228.96 16.56ZM228.96 15.60Q229.85 15.60 230.53 14.95Q231.22 14.30 231.59 13.18Q231.96 12.05 231.96 10.68L231.96 10.68Q231.96 9.31 231.59 8.18Q231.22 7.06 230.53 6.41Q229.85 5.76 228.96 5.76L228.96 5.76Q228.07 5.76 227.39 6.41Q226.70 7.06 226.33 8.18Q225.96 9.31 225.96 10.68L225.96 10.68Q225.96 12.05 226.33 13.18Q226.70 14.30 227.39 14.95Q228.07 15.60 228.96 15.60L228.96 15.60ZM240.38 16.56Q239.04 16.56 238.27 15.79Q237.50 15.02 237.50 13.44L237.50 13.44L237.50 6L235.82 6L235.82 5.04L237.50 5.04L237.50 2.88L238.70 1.44L239.66 1.44L239.66 5.04L242.54 5.04L242.54 6L239.66 6L239.66 13.44Q239.66 15.60 241.34 15.60L241.34 15.60Q241.92 15.60 242.32 15.48Q242.71 15.36 243.14 15.12L243.14 15.12L243.38 15.60Q242.83 16.01 242.16 16.28Q241.49 16.56 240.38 16.56L240.38 16.56ZM249.55 16.56Q247.92 16.56 246.79 15.78Q245.66 15 245.09 13.67Q244.51 12.34 244.51 10.68L244.51 10.68Q244.51 9.05 245.09 7.70Q245.66 6.36 246.76 5.58Q247.85 4.80 249.31 4.80L249.31 4.80Q251.74 4.80 252.92 6.16Q254.11 7.51 254.11 10.08L254.11 10.08L254.06 11.04L246.79 11.04Q246.79 13.06 247.66 14.33Q248.52 15.60 250.03 15.60L250.03 15.60Q251.16 15.60 251.94 15.12Q252.72 14.64 253.39 13.68L253.39 13.68L253.87 14.04Q253.08 15.36 252.02 15.96Q250.97 16.56 249.55 16.56L249.55 16.56ZM246.79 10.08L251.83 10.08Q251.83 7.97 251.21 6.86Q250.58 5.76 249.31 5.76L249.31 5.76Q248.59 5.76 248.02 6.32Q247.44 6.89 247.12 7.87Q246.79 8.86 246.79 10.08L246.79 10.08ZM256.97 16.32L256.97 3.36Q256.97 2.14 256.63 1.55Q256.30 0.96 255.29 0.96L255.29 0.96L254.81 0.96L254.81 0.48L256.97 0.48Q257.86 0.48 258.30 0.71Q258.74 0.94 258.94 1.54Q259.13 2.14 259.13 3.36L259.13 3.36L259.13 16.32L256.97 16.32Z" transform="translate(0, 47)"></path></svg>